<mxfile host="app.diagrams.net" modified="2024-03-14T21:12:57.059Z" agent="Mozilla/5.0 (Windows NT 10.0; Win64; x64) AppleWebKit/537.36 (KHTML, like Gecko) Chrome/122.0.0.0 Safari/537.36" etag="E-phRsNyhww1oavTNjdj" version="24.0.6" type="device">
  <diagram name="Page-1" id="-sa0xwZX24-mUIFfLnqw">
    <mxGraphModel dx="1050" dy="557" grid="0" gridSize="10" guides="1" tooltips="1" connect="1" arrows="1" fold="1" page="1" pageScale="1" pageWidth="850" pageHeight="1100" math="0" shadow="0">
      <root>
        <mxCell id="0" />
        <mxCell id="1" parent="0" />
        <mxCell id="nPfNH5tf9M5_kx83eceq-12" style="edgeStyle=orthogonalEdgeStyle;rounded=0;orthogonalLoop=1;jettySize=auto;html=1;exitX=0.25;exitY=1;exitDx=0;exitDy=0;entryX=1;entryY=0.75;entryDx=0;entryDy=0;dashed=1;" edge="1" parent="1" source="nPfNH5tf9M5_kx83eceq-1" target="nPfNH5tf9M5_kx83eceq-3">
          <mxGeometry relative="1" as="geometry" />
        </mxCell>
        <mxCell id="nPfNH5tf9M5_kx83eceq-13" value="Light intensity (0 - 1023)" style="edgeLabel;html=1;align=center;verticalAlign=middle;resizable=0;points=[];" vertex="1" connectable="0" parent="nPfNH5tf9M5_kx83eceq-12">
          <mxGeometry x="-0.2123" y="1" relative="1" as="geometry">
            <mxPoint as="offset" />
          </mxGeometry>
        </mxCell>
        <mxCell id="nPfNH5tf9M5_kx83eceq-19" style="edgeStyle=orthogonalEdgeStyle;rounded=0;orthogonalLoop=1;jettySize=auto;html=1;exitX=1;exitY=0.5;exitDx=0;exitDy=0;entryX=0;entryY=0.5;entryDx=0;entryDy=0;dashed=1;" edge="1" parent="1" source="nPfNH5tf9M5_kx83eceq-1" target="nPfNH5tf9M5_kx83eceq-4">
          <mxGeometry relative="1" as="geometry" />
        </mxCell>
        <mxCell id="nPfNH5tf9M5_kx83eceq-20" value="LED brightness" style="edgeLabel;html=1;align=center;verticalAlign=middle;resizable=0;points=[];" vertex="1" connectable="0" parent="nPfNH5tf9M5_kx83eceq-19">
          <mxGeometry x="-0.2492" y="-2" relative="1" as="geometry">
            <mxPoint x="11" y="-12" as="offset" />
          </mxGeometry>
        </mxCell>
        <mxCell id="nPfNH5tf9M5_kx83eceq-1" value="Mosquitto MQTT Broker - PC/Linux Machine" style="whiteSpace=wrap;html=1;aspect=fixed;" vertex="1" parent="1">
          <mxGeometry x="410" y="240" width="80" height="80" as="geometry" />
        </mxCell>
        <mxCell id="nPfNH5tf9M5_kx83eceq-10" style="edgeStyle=orthogonalEdgeStyle;rounded=0;orthogonalLoop=1;jettySize=auto;html=1;exitX=1;exitY=0.5;exitDx=0;exitDy=0;entryX=0;entryY=0.25;entryDx=0;entryDy=0;dashed=1;" edge="1" parent="1" source="nPfNH5tf9M5_kx83eceq-2" target="nPfNH5tf9M5_kx83eceq-1">
          <mxGeometry relative="1" as="geometry" />
        </mxCell>
        <mxCell id="nPfNH5tf9M5_kx83eceq-11" value="Light intensity (0 - 1023)" style="edgeLabel;html=1;align=center;verticalAlign=middle;resizable=0;points=[];" vertex="1" connectable="0" parent="nPfNH5tf9M5_kx83eceq-10">
          <mxGeometry x="-0.0971" y="-2" relative="1" as="geometry">
            <mxPoint x="32" y="-3" as="offset" />
          </mxGeometry>
        </mxCell>
        <mxCell id="nPfNH5tf9M5_kx83eceq-2" value="Client 1 - Arduino (Publisher)" style="whiteSpace=wrap;html=1;aspect=fixed;" vertex="1" parent="1">
          <mxGeometry x="170" y="170" width="80" height="80" as="geometry" />
        </mxCell>
        <mxCell id="nPfNH5tf9M5_kx83eceq-8" style="edgeStyle=orthogonalEdgeStyle;rounded=0;orthogonalLoop=1;jettySize=auto;html=1;exitX=0.5;exitY=1;exitDx=0;exitDy=0;entryX=0.5;entryY=0;entryDx=0;entryDy=0;" edge="1" parent="1" source="nPfNH5tf9M5_kx83eceq-3" target="nPfNH5tf9M5_kx83eceq-6">
          <mxGeometry relative="1" as="geometry" />
        </mxCell>
        <mxCell id="nPfNH5tf9M5_kx83eceq-9" style="edgeStyle=orthogonalEdgeStyle;rounded=0;orthogonalLoop=1;jettySize=auto;html=1;exitX=1;exitY=0.5;exitDx=0;exitDy=0;entryX=0;entryY=0.75;entryDx=0;entryDy=0;dashed=1;" edge="1" parent="1" source="nPfNH5tf9M5_kx83eceq-3" target="nPfNH5tf9M5_kx83eceq-1">
          <mxGeometry relative="1" as="geometry" />
        </mxCell>
        <mxCell id="nPfNH5tf9M5_kx83eceq-14" value="LED brightness (0 - 100)" style="edgeLabel;html=1;align=center;verticalAlign=middle;resizable=0;points=[];" vertex="1" connectable="0" parent="nPfNH5tf9M5_kx83eceq-9">
          <mxGeometry x="-0.4764" y="3" relative="1" as="geometry">
            <mxPoint x="31" y="-7" as="offset" />
          </mxGeometry>
        </mxCell>
        <mxCell id="nPfNH5tf9M5_kx83eceq-3" value="Client 2 - Arduino (Publisher &amp;amp; Subscriber)" style="whiteSpace=wrap;html=1;aspect=fixed;" vertex="1" parent="1">
          <mxGeometry x="170" y="290" width="80" height="80" as="geometry" />
        </mxCell>
        <mxCell id="nPfNH5tf9M5_kx83eceq-4" value="Client 3 - PC/Phone (Subscriber)" style="whiteSpace=wrap;html=1;aspect=fixed;" vertex="1" parent="1">
          <mxGeometry x="620" y="240" width="80" height="80" as="geometry" />
        </mxCell>
        <mxCell id="nPfNH5tf9M5_kx83eceq-7" style="edgeStyle=orthogonalEdgeStyle;rounded=0;orthogonalLoop=1;jettySize=auto;html=1;exitX=0.5;exitY=1;exitDx=0;exitDy=0;entryX=0.5;entryY=0;entryDx=0;entryDy=0;" edge="1" parent="1" source="nPfNH5tf9M5_kx83eceq-5" target="nPfNH5tf9M5_kx83eceq-2">
          <mxGeometry relative="1" as="geometry" />
        </mxCell>
        <mxCell id="nPfNH5tf9M5_kx83eceq-5" value="Light Sensor (Photoresistor)" style="ellipse;whiteSpace=wrap;html=1;aspect=fixed;" vertex="1" parent="1">
          <mxGeometry x="170" y="40" width="80" height="80" as="geometry" />
        </mxCell>
        <mxCell id="nPfNH5tf9M5_kx83eceq-6" value="LED" style="ellipse;whiteSpace=wrap;html=1;aspect=fixed;" vertex="1" parent="1">
          <mxGeometry x="170" y="420" width="80" height="80" as="geometry" />
        </mxCell>
        <mxCell id="nPfNH5tf9M5_kx83eceq-17" style="edgeStyle=orthogonalEdgeStyle;rounded=0;orthogonalLoop=1;jettySize=auto;html=1;exitX=0;exitY=0.25;exitDx=0;exitDy=0;entryX=0.25;entryY=1;entryDx=0;entryDy=0;" edge="1" parent="1" source="nPfNH5tf9M5_kx83eceq-3" target="nPfNH5tf9M5_kx83eceq-3">
          <mxGeometry relative="1" as="geometry" />
        </mxCell>
        <mxCell id="nPfNH5tf9M5_kx83eceq-18" value="convert light intensity -&amp;gt; LED brightness&amp;nbsp;" style="edgeLabel;html=1;align=center;verticalAlign=middle;resizable=0;points=[];rotation=-90;" vertex="1" connectable="0" parent="nPfNH5tf9M5_kx83eceq-17">
          <mxGeometry x="-0.2475" y="-2" relative="1" as="geometry">
            <mxPoint x="-18" y="20" as="offset" />
          </mxGeometry>
        </mxCell>
      </root>
    </mxGraphModel>
  </diagram>
</mxfile>
